<svg width="52" height="52" viewBox="0 0 52 52" fill="none" xmlns="http://www.w3.org/2000/svg">
<path d="M51 26C51 12.1929 39.8071 1 26 1C12.1929 1 1 12.1929 1 26C1 39.8071 12.1929 51 26 51C39.8071 51 51 39.8071 51 26Z" fill="white" stroke="#1F35F0" stroke-width="2"/>
<path d="M14 19.42V33.592L21.086 26.506L14 19.42ZM15.408 18L24.379 26.971C25.512 28.104 27.488 28.104 28.621 26.971L37.592 18H15.408Z" fill="#1F35F0"/>
<path d="M30.0349 28.3849C29.0919 29.3289 27.8359 29.8499 26.4999 29.8499C25.1639 29.8499 23.9079 29.3289 22.9649 28.3849L22.4999 27.9199L15.4199 34.9999H37.5799L30.4999 27.9199L30.0349 28.3849ZM31.9139 26.5059L38.9999 33.5919V19.4199L31.9139 26.5059Z" fill="#1F35F0"/>
</svg>
