<svg width="187" height="48" viewBox="0 0 187 48" fill="none" xmlns="http://www.w3.org/2000/svg">
<path d="M175.189 0L177.915 28.9466H177.37L172.1 0H160.287V47.8168H171.191L168.829 19.2366H169.374L174.281 47.8168H186.094V0H175.189Z" fill="white"/>
<path d="M0.177734 0V47.8168H17.6244V38.4733H10.9002V0H0.177734Z" fill="white"/>
<path d="M45.9746 0L48.7007 28.9466H48.1554L42.8851 0H31.0723V47.8168H41.9764L39.6139 19.2366H40.1591L45.0659 47.8168H56.8788V0H45.9746Z" fill="white"/>
<path d="M58.334 0V47.8168H70.5103C78.3249 47.8168 83.0501 43.9695 83.0501 35.9084V12.0916C83.0501 4.03053 78.1432 0.183206 70.5103 0.183206H58.334V0ZM69.2381 9.52672H70.5103C71.6007 9.52672 72.3277 9.89313 72.3277 11.7252V36.0916C72.3277 37.9237 71.7825 38.2901 70.5103 38.2901H69.2381V9.52672Z" fill="white"/>
<path d="M115.217 0V48H126.121V30.229H127.211C128.484 30.229 129.029 30.7786 129.029 32.6107V38.1069C129.029 41.771 129.029 45.0687 129.756 48H140.478C139.933 45.0687 139.751 42.1374 139.751 38.2901V37.7405C139.751 30.5954 135.935 26.1985 132.845 26.0153V25.2824C135.935 25.0992 139.751 21.2519 139.751 13.374V12.8244C139.751 4.21374 135.208 0 127.211 0H115.217ZM125.939 9.52672H127.03C128.302 9.52672 128.847 10.2595 128.847 11.9084V18.3206C128.847 19.9695 128.302 20.7023 127.03 20.7023H125.939V9.52672Z" fill="white"/>
<path d="M159.015 9.52672V0H141.568V47.8168H159.197V38.4733H152.473V27.4809H159.015V18.1374H152.473V9.52672H159.015Z" fill="white"/>
<path d="M18.7148 0V47.8168H29.619V0H18.7148Z" fill="white"/>
<path d="M100.496 11.542C100.86 9.89313 101.587 9.16031 102.677 9.16031C103.586 9.16031 103.949 9.89313 103.586 11.3588L101.587 19.6031H112.128L113.945 12.0916C115.944 4.39695 112.491 0 104.676 0C97.0434 0 91.7731 4.21374 89.774 12.0916L83.9584 35.542C81.7776 44.1527 85.7758 47.8168 90.3192 47.8168C93.4087 47.8168 96.8617 45.9847 98.4973 42.8702H99.2243L98.1338 47.084H105.403L111.764 21.2519H99.2243L97.4069 28.3969H99.406L97.5886 35.9084C97.0434 37.5573 96.1347 38.6565 95.2261 38.6565C94.3174 38.6565 93.9539 37.9237 94.3174 36.458L100.496 11.542Z" fill="white"/>
</svg>
