<svg width="135" height="35" viewBox="0 0 135 35" fill="none" xmlns="http://www.w3.org/2000/svg">
<path d="M0 0V34.5419H12.7107V27.718H7.91942V0H0Z" fill="#1F35F0"/>
<path d="M13.4766 0V34.5419H21.396V0H13.4766Z" fill="#1F35F0"/>
<path d="M33.2099 0L35.1369 20.7885H34.6882L30.9924 0H22.4395V34.5419H30.3589L28.577 13.8986H29.039L32.5367 34.5419H41.1161V0H33.2099Z" fill="#1F35F0"/>
<path d="M42.2383 0V34.5419H51.108C56.7176 34.5419 60.2154 31.8361 60.2154 25.9229V8.67177C60.2286 2.8114 56.7572 0 51.1212 0H42.2383ZM50.1577 6.8503H51.042C51.8736 6.8503 52.3619 7.14068 52.3619 8.47378V26.0681C52.3619 27.388 51.9132 27.6916 51.042 27.6916H50.1577V6.8503Z" fill="#1F35F0"/>
<path d="M83.5098 0V34.5419H91.4292V21.7784H92.2607C93.2507 21.7784 93.5806 22.2272 93.5806 23.4547V27.4144C93.5071 29.7918 93.6707 32.1706 94.069 34.5155H101.896C101.478 32.1906 101.31 29.8278 101.394 27.4672V27.0712C101.394 21.8972 98.5963 18.7426 96.3788 18.5974V18.0827C98.6359 17.9375 101.394 15.1261 101.394 9.46371V9.23933C101.394 3.02258 98.0551 0 92.3399 0H83.5098ZM91.4292 6.8503H92.2607C93.2507 6.8503 93.5806 7.33866 93.5806 8.52658V13.199C93.5806 14.4397 93.2375 14.9281 92.2607 14.9281H91.4292V6.8503Z" fill="#1F35F0"/>
<path d="M115.334 6.9031V0H102.623V34.5419H115.387V27.718H110.503V19.7986H115.228V13.0143H110.503V6.9031H115.334Z" fill="#1F35F0"/>
<path d="M127.12 0L129.047 20.7885H128.598L124.902 0H116.336V34.5419H124.255L122.487 13.8986H122.935L126.433 34.5419H134.999V0H127.12Z" fill="#1F35F0"/>
<path d="M72.8865 8.27674C73.1769 7.16802 73.7049 6.64006 74.4176 6.64006C75.1304 6.64006 75.3811 7.16802 75.1436 8.27674L73.6521 14.2163H81.3207L82.6406 8.80471C83.9605 3.19511 81.5847 0.0273438 75.8827 0.0273438C70.1807 0.0273438 66.5114 3.08952 65.0727 8.80471L60.8622 25.6731C59.3179 31.8502 62.1821 34.5428 65.4159 34.5428C66.6256 34.5314 67.811 34.2022 68.8535 33.5884C69.8959 32.9745 70.7587 32.0974 71.3554 31.0451H71.8834L71.1178 34.0677H76.3975L81.0435 15.5098H71.923L70.6823 20.4991H72.0682L70.7483 25.9107C70.4051 27.1118 69.7319 27.8773 69.0192 27.8773C68.3065 27.8773 68.1613 27.2966 68.3988 26.2538L72.8865 8.27674Z" fill="#1F35F0"/>
</svg>
