<svg width="30" height="33" viewBox="0 0 30 33" fill="none" xmlns="http://www.w3.org/2000/svg">
<path d="M29.2936 4.82607C28.6802 4.05966 27.7513 3.61449 26.7698 3.61644H26.29C26.3504 3.33407 26.4109 3.05592 26.4674 2.81014C26.6148 2.12363 26.4438 1.40734 26.0022 0.861454C25.5604 0.315569 24.8956 -0.00107526 24.1933 4.70067e-06H5.80803C5.10859 -0.00140148 4.44598 0.312748 4.00384 0.854687C3.56202 1.39691 3.38793 2.10903 3.52996 2.79387C3.58649 3.04782 3.64695 3.32597 3.70742 3.60017L3.23155 3.60045C2.24749 3.59848 1.31628 4.04593 0.703219 4.81569C0.0898366 5.5852 -0.138792 6.59259 0.0828023 7.5516C0.568505 9.6941 1.61188 11.6701 3.10727 13.2796C4.60266 14.8892 6.49677 16.0746 8.59795 16.7161C9.80758 18.5346 11.1865 19.9737 12.8272 20.6672V24.1225H9.50519C8.71854 24.1245 7.96458 24.4378 7.40768 24.9939C6.85111 25.5496 6.53695 26.3033 6.53356 27.0899V32.6256H23.4674V27.0899C23.4674 26.2991 23.1527 25.5405 22.5933 24.9818C22.0336 24.4229 21.2745 24.1094 20.4837 24.1104H17.1734V20.6551C18.8145 19.9616 20.2134 18.5222 21.4027 16.704H21.403C23.5024 16.063 25.3955 14.8793 26.8906 13.2723C28.3859 11.665 29.4301 9.69187 29.9181 7.5516C30.1386 6.5954 29.9083 5.59082 29.2932 4.82613L29.2936 4.82607ZM2.26433 7.03942C2.19795 6.74552 2.26911 6.43756 2.45726 6.20216C2.64569 5.96676 2.93058 5.82979 3.23181 5.82979H4.24402C4.89875 8.45266 5.77397 11.0153 6.8607 13.4903C4.52524 12.0433 2.86908 9.71917 2.26438 7.03921L2.26433 7.03942ZM27.7378 7.03942H27.7375C27.1328 9.71938 25.4766 12.0435 23.1412 13.4905C24.2279 11.0153 25.1031 8.45265 25.7578 5.83H26.7701C27.0713 5.83 27.3562 5.96696 27.5446 6.20237C27.7327 6.43776 27.8039 6.74572 27.7375 7.03962L27.7378 7.03942Z" fill="#1F35F0"/>
</svg>
