<svg width="907" height="576" viewBox="0 0 907 576" fill="none" xmlns="http://www.w3.org/2000/svg">
<path d="M160 7.99999V306.4H128V7.99999H0V417.6H160V568H288V7.99999H160Z" fill="#F3F3F3"/>
<path d="M307.012 147.2V428C307.012 525.6 360.612 576 451.812 576C543.812 576 600.613 524.8 600.613 428V147.2C600.613 51.2 543.812 0 451.812 0C360.612 0 307.012 49.6 307.012 147.2ZM435.012 137.6C435.012 117.6 443.812 111.2 453.413 111.2C463.812 111.2 472.613 117.6 472.613 137.6V438.4C472.613 457.6 463.812 464.8 453.413 464.8C443.812 464.8 435.012 457.6 435.012 438.4V137.6Z" fill="#F3F3F3"/>
<path d="M778.75 7.99999V306.4H746.75V7.99999H618.75V417.6H778.75V568H906.75V7.99999H778.75Z" fill="#F3F3F3"/>
</svg>
