<svg width="350" height="42" viewBox="0 0 350 42" fill="none" xmlns="http://www.w3.org/2000/svg">
<rect width="350" height="42" fill="#4353FF"/>
<path d="M104.521 18.5098C104.521 18.5098 103.057 22.9133 102.947 23.2871C102.905 22.9133 101.839 15 101.839 15C99.344 15 98.0159 16.698 97.3139 18.5098C97.3139 18.5098 95.5376 22.9296 95.3938 23.3033C95.3853 22.954 95.1231 18.5586 95.1231 18.5586C94.9708 16.3487 92.8731 15.0081 91.1729 15.0081L93.2199 27C95.8336 26.9919 97.2378 25.2938 97.9737 23.4902C97.9737 23.4902 99.5385 19.5904 99.6062 19.4116C99.6231 19.5823 100.731 27 100.731 27C103.345 27 104.757 25.4076 105.519 23.6689L109.173 15C106.585 15 105.223 16.698 104.521 18.5098Z" fill="white"/>
<path d="M126.173 25.78H128.035V21.972H129.435C131.577 21.972 133.103 21.034 133.103 18.92V18.864C133.103 16.764 131.633 15.77 129.393 15.77H126.173V25.78ZM128.035 20.628V17.212H129.393C130.583 17.212 131.283 17.674 131.283 18.864V18.92C131.283 20.026 130.625 20.628 129.393 20.628H128.035ZM134.564 25.78H136.258V21.972C136.258 20.418 137.154 19.942 138.638 19.928V18.346C137.406 18.36 136.72 18.906 136.258 19.83V18.458H134.564V25.78ZM143.268 24.604C141.98 24.604 141.238 23.666 141.238 22.168V22.056C141.238 20.544 142.008 19.634 143.268 19.634C144.528 19.634 145.284 20.558 145.284 22.07V22.168C145.284 23.666 144.528 24.604 143.268 24.604ZM143.254 25.92C145.41 25.92 147.02 24.436 147.02 22.154V22.042C147.02 19.802 145.41 18.304 143.268 18.304C141.112 18.304 139.502 19.816 139.502 22.084V22.196C139.502 24.422 141.098 25.92 143.254 25.92ZM148.844 25.78H150.538V19.732H152.204V18.458H150.538V17.408C150.538 16.778 150.818 16.33 151.504 16.33C151.812 16.33 152.078 16.386 152.274 16.456V15.14C151.966 15.042 151.714 15 151.308 15C149.74 15 148.844 15.868 148.844 17.478V18.458H147.85V19.732H148.844V25.78ZM156.569 25.92C158.445 25.92 159.691 25.08 159.929 23.54H158.291C158.165 24.254 157.633 24.66 156.611 24.66C155.351 24.66 154.651 23.876 154.595 22.49H159.957V22C159.957 19.382 158.319 18.304 156.499 18.304C154.413 18.304 152.859 19.816 152.859 22.084V22.196C152.859 24.506 154.413 25.92 156.569 25.92ZM154.623 21.356C154.791 20.222 155.477 19.536 156.499 19.536C157.549 19.536 158.193 20.096 158.277 21.356H154.623ZM164.045 25.92C165.921 25.92 166.971 25.066 166.971 23.582C166.971 22.028 165.949 21.608 164.227 21.342C163.065 21.146 162.715 20.936 162.715 20.404C162.715 19.886 163.149 19.536 163.877 19.536C164.661 19.536 165.039 19.844 165.179 20.516H166.747C166.565 18.864 165.375 18.304 163.877 18.304C162.505 18.304 161.133 19.032 161.133 20.502C161.133 21.874 161.847 22.42 163.779 22.728C164.857 22.91 165.347 23.134 165.347 23.736C165.347 24.352 164.941 24.674 164.031 24.674C163.037 24.674 162.659 24.24 162.575 23.498H160.979C161.049 25.052 162.155 25.92 164.045 25.92ZM170.963 25.92C172.839 25.92 173.889 25.066 173.889 23.582C173.889 22.028 172.867 21.608 171.145 21.342C169.983 21.146 169.633 20.936 169.633 20.404C169.633 19.886 170.067 19.536 170.795 19.536C171.579 19.536 171.957 19.844 172.097 20.516H173.665C173.483 18.864 172.293 18.304 170.795 18.304C169.423 18.304 168.051 19.032 168.051 20.502C168.051 21.874 168.765 22.42 170.697 22.728C171.775 22.91 172.265 23.134 172.265 23.736C172.265 24.352 171.859 24.674 170.949 24.674C169.955 24.674 169.577 24.24 169.493 23.498H167.897C167.967 25.052 169.073 25.92 170.963 25.92ZM175.417 25.78H177.111V18.458H175.417V25.78ZM176.243 17.254C176.803 17.254 177.251 16.834 177.251 16.288C177.251 15.728 176.803 15.308 176.243 15.308C175.683 15.308 175.235 15.728 175.235 16.288C175.235 16.834 175.683 17.254 176.243 17.254ZM182.452 24.604C181.164 24.604 180.422 23.666 180.422 22.168V22.056C180.422 20.544 181.192 19.634 182.452 19.634C183.712 19.634 184.468 20.558 184.468 22.07V22.168C184.468 23.666 183.712 24.604 182.452 24.604ZM182.438 25.92C184.594 25.92 186.204 24.436 186.204 22.154V22.042C186.204 19.802 184.594 18.304 182.452 18.304C180.296 18.304 178.686 19.816 178.686 22.084V22.196C178.686 24.422 180.282 25.92 182.438 25.92ZM187.734 25.78H189.428V21.468C189.428 20.306 190.198 19.718 191.15 19.718C192.158 19.718 192.606 20.222 192.606 21.328V25.78H194.3V21.174C194.3 19.158 193.264 18.304 191.794 18.304C190.59 18.304 189.778 18.906 189.428 19.62V18.458H187.734V25.78ZM198.17 25.92C199.29 25.92 199.934 25.514 200.41 24.884V25.78H202.076V20.978C202.076 18.976 200.788 18.304 199.15 18.304C197.512 18.304 196.154 19.018 196.014 20.726H197.652C197.736 19.998 198.17 19.578 199.052 19.578C200.046 19.578 200.382 20.068 200.382 21.048V21.426H199.472C197.372 21.426 195.72 22.042 195.72 23.75C195.72 25.276 196.826 25.92 198.17 25.92ZM198.576 24.702C197.736 24.702 197.4 24.296 197.4 23.68C197.4 22.784 198.226 22.49 199.514 22.49H200.382V23.218C200.382 24.156 199.612 24.702 198.576 24.702ZM204.059 25.78H205.753V15.07H204.059V25.78ZM211.294 25.78H213.156V21.972H214.556C216.698 21.972 218.224 21.034 218.224 18.92V18.864C218.224 16.764 216.754 15.77 214.514 15.77H211.294V25.78ZM213.156 20.628V17.212H214.514C215.704 17.212 216.404 17.674 216.404 18.864V18.92C216.404 20.026 215.746 20.628 214.514 20.628H213.156ZM221.467 25.92C222.587 25.92 223.231 25.514 223.707 24.884V25.78H225.373V20.978C225.373 18.976 224.085 18.304 222.447 18.304C220.809 18.304 219.451 19.018 219.311 20.726H220.949C221.033 19.998 221.467 19.578 222.349 19.578C223.343 19.578 223.679 20.068 223.679 21.048V21.426H222.769C220.669 21.426 219.017 22.042 219.017 23.75C219.017 25.276 220.123 25.92 221.467 25.92ZM221.873 24.702C221.033 24.702 220.697 24.296 220.697 23.68C220.697 22.784 221.523 22.49 222.811 22.49H223.679V23.218C223.679 24.156 222.909 24.702 221.873 24.702ZM227.314 25.78H229.008V21.972C229.008 20.418 229.904 19.942 231.388 19.928V18.346C230.156 18.36 229.47 18.906 229.008 19.83V18.458H227.314V25.78ZM235.439 25.906C235.957 25.906 236.321 25.822 236.587 25.724V24.38C236.349 24.478 236.097 24.52 235.761 24.52C235.229 24.52 234.921 24.226 234.921 23.582V19.732H236.531V18.458H234.921V16.848H233.227V18.458H232.247V19.732H233.227V23.736C233.227 25.122 233.983 25.906 235.439 25.906ZM238.115 25.78H239.809V21.468C239.809 20.306 240.579 19.718 241.531 19.718C242.539 19.718 242.987 20.222 242.987 21.328V25.78H244.681V21.174C244.681 19.158 243.645 18.304 242.175 18.304C240.971 18.304 240.159 18.906 239.809 19.62V18.458H238.115V25.78ZM249.853 25.92C251.729 25.92 252.975 25.08 253.213 23.54H251.575C251.449 24.254 250.917 24.66 249.895 24.66C248.635 24.66 247.935 23.876 247.879 22.49H253.241V22C253.241 19.382 251.603 18.304 249.783 18.304C247.697 18.304 246.143 19.816 246.143 22.084V22.196C246.143 24.506 247.697 25.92 249.853 25.92ZM247.907 21.356C248.075 20.222 248.761 19.536 249.783 19.536C250.833 19.536 251.477 20.096 251.561 21.356H247.907ZM254.754 25.78H256.448V21.972C256.448 20.418 257.344 19.942 258.828 19.928V18.346C257.596 18.36 256.91 18.906 256.448 19.83V18.458H254.754V25.78Z" fill="white"/>
</svg>
